<?xml version="1.0" encoding="UTF-8"?><svg id="Layer_2" xmlns="http://www.w3.org/2000/svg" viewBox="0 0 312.5 428.58"><g id="Golden_Ratio_grid"><path d="M63.2,424.59l-42.5-22.53c-8.92-4.73-15.36-11.64-18.17-21.39C.91,375.02,0,369.57,0,363.29l.03-136.72c0-26.65,9.28-43.38,29.33-60.38L186.17,33.18c10.77-9.13,20.44-18.06,31.91-26.34,8.61-6.22,21.32-9.5,31.12-4.15l44.42,24.26c11.05,6.03,18.69,18.07,18.71,30.89l.18,146.13c.02,20.01-7.48,38.9-22.59,52.07l-113.58,99-72.43,62.93c-11.62,10.1-26.08,14.37-40.7,6.62ZM90.49,407.34l11.98-10.23,86.46-75,37.7-32.81,47.61-42.04c4.09-3.61,8.19-6.68,11.41-11.15,6.02-8.35,9.44-18.32,9.44-29.14l-.03-150.2c0-8.45-7.6-15-14.97-14.26-5.8.58-9.61,4-13.63,7.38l-19.42,16.34L86.24,203.73c-12.45,10.65-20.16,24.54-21.84,41.02l-1.22,25.14.04,118.92c0,10.54,3.25,20.46,12.87,22.65,5.11,1.16,10.11-.47,14.39-4.13Z" fill="#020202"/><path d="M90.49,407.34c-4.28,3.66-9.29,5.29-14.39,4.13-9.62-2.19-12.87-12.11-12.87-22.65l-.04-118.92,1.22-25.14c1.68-16.49,9.39-30.37,21.84-41.02L247.04,66.22l19.42-16.34c4.02-3.38,7.83-6.8,13.63-7.38,7.37-.73,14.96,5.81,14.97,14.26l.03,150.2c0,10.82-3.42,20.79-9.44,29.14-3.22,4.47-7.32,7.54-11.41,11.15l-47.61,42.04-37.7,32.81-86.46,75-11.98,10.23ZM250.83,189.72c4.22,1.79,8.29,1.17,11.22-2.51,2.28-2.86,2.35-8.85-1.47-11.07-10.68-6.22-23.08-6.4-34.5-1.74-13.1,5.35-22.94,16.65-26.66,30.43-1.3,4.79,2.55,8.74,6.7,9.67,4.19.93,8.45-1.88,9.74-6.27,3.98-13.47,20.8-24.52,34.97-18.5ZM166.08,281.59c13.17-13.78,16.15-34.66,8.28-51.71-4.56-9.88-13.66-17.02-24.49-18.02-11.89-1.09-22.56,5.2-29.27,14.9-9.48,13.7-10.82,32.08-3.59,47.04,4.45,9.22,12.91,15.34,21.88,16.9,10.15,1.77,19.74-1.31,27.2-9.11Z" fill="#8a3efb"/><path d="M166.08,281.59c-7.45,7.8-17.05,10.88-27.2,9.11-8.97-1.56-17.42-7.68-21.88-16.9-7.23-14.96-5.9-33.34,3.59-47.04,6.71-9.7,17.38-15.99,29.27-14.9,10.84,1,19.93,8.13,24.49,18.02,7.87,17.05,4.89,37.93-8.28,51.71ZM163.02,232.33c0-5.63-4.56-10.19-10.19-10.19s-10.19,4.56-10.19,10.19,4.56,10.19,10.19,10.19,10.19-4.56,10.19-10.19Z" fill="#020103"/><path d="M250.83,189.72c-14.17-6.02-30.99,5.03-34.97,18.5-1.3,4.4-5.56,7.21-9.74,6.27-4.15-.92-8-4.87-6.7-9.67,3.73-13.78,13.56-25.08,26.66-30.43,11.42-4.66,23.82-4.48,34.5,1.74,3.82,2.22,3.75,8.21,1.47,11.07-2.93,3.67-7,4.3-11.22,2.51Z" fill="#040207"/><circle cx="152.83" cy="232.33" r="10.19" fill="#f7f7f7"/></g></svg>